<?xml version="1.0" encoding="UTF-8"?>
<!DOCTYPE svg PUBLIC "-//W3C//DTD SVG 1.1//EN" "http://www.w3.org/Graphics/SVG/1.1/DTD/svg11.dtd">
<!-- Creator: CorelDRAW 2018 (64-Bit Evaluation Version) -->
<svg xmlns="http://www.w3.org/2000/svg" xml:space="preserve" width="841px" height="277px" version="1.1" style="shape-rendering:geometricPrecision; text-rendering:geometricPrecision; image-rendering:optimizeQuality; fill-rule:evenodd; clip-rule:evenodd"
viewBox="0 0 839.96 276.43"
 xmlns:xlink="http://www.w3.org/1999/xlink">
 <defs>
  <style type="text/css">
   <![CDATA[
    .str0 {stroke:#E6E7E8;stroke-width:2.08;stroke-miterlimit:2.61313}
    .fil0 {fill:#FEFEFE}
    .fil1 {fill:#E6E7E8}
   ]]>
  </style>
 </defs>
 <g id="Layer_x0020_1">
  <metadata id="CorelCorpID_0Corel-Layer"/>
  <g id="_2631074631984">
   <g>
    <path class="fil0 str0" d="M89.57 220.37c-40.45,-43.46 -64.22,-76.48 -76.92,-102.55 -20.14,-41.35 -15.64,-81.77 25.81,-106.88 37.94,-22.97 79.78,-2.31 109.03,24.36 20.2,18.42 40.5,43.39 60.87,73.26 -11.16,17.97 -24.14,32.94 -38.93,46.92 -20.69,-28.79 -41.35,-55.66 -61.77,-71.43 -7.28,-5.62 -31.56,-21.99 -37.1,-6.52 -5.71,15.95 20.43,45.46 32.27,56.32 12.63,11.59 28.71,24.54 47.63,38.6 14.31,15.31 28.65,29.95 41.75,46.92 8.98,7.99 13.16,18.97 -0.82,17.97 -7.99,-4 -10.65,-1.34 -6.99,3.99 2.96,8.72 1,14.98 -9.98,8.99 -5.05,-3.16 -5.22,-0.51 -3,4.99 1.62,7.8 -2.99,11.98 -9.98,7.98 -6.68,-4.86 -7.98,0 -5.99,3 6.99,11.98 -8.98,10.98 -14.97,2.99 -16.97,-16.3 -33.94,-32.61 -50.91,-48.91z"/>
    <g>
     <path class="fil1 str0" d="M134.31 46.67c-17.97,20.29 -35.94,40.59 -53.91,60.89 6.99,12.98 42.22,46.89 43.93,44.92 17.07,-19.68 66.8,-94.43 85.95,-80.14 5.41,4.04 8.04,12.87 2.9,23.85 -9.99,21.35 -18.24,30.9 -31.01,44.64 -7.47,8.05 -14.92,17.64 -22.36,25.11 -10.77,10.8 -21.45,3.39 -35.33,19.5 -8.69,10.09 -4.4,19.7 2.82,22.06 15.69,5.14 13.14,-16.81 30.06,-17.01 18.83,-0.23 18.88,16.9 36.64,29.76 40.18,-43.44 130.46,-135.31 69.23,-196.03 -39.35,-39.02 -97.39,-15.11 -128.92,22.45z"/>
     <path class="fil1 str0" d="M98.07 215.85c5.51,0 9.98,4.47 9.98,9.98 0,1.2 -0.21,2.35 -0.59,3.41 1.2,-0.51 2.53,-0.8 3.92,-0.8 5.51,0 9.98,4.47 9.98,9.98 0,0.61 -0.05,1.2 -0.16,1.78 0.92,-0.27 1.88,-0.42 2.88,-0.42 5.52,0 9.99,4.47 9.99,9.98 0,0.7 -0.07,1.38 -0.21,2.04 1.09,-0.41 2.27,-0.63 3.5,-0.63 5.51,0 9.98,4.47 9.98,9.98 0,5.52 -4.47,9.99 -9.98,9.99 -5.51,0 -9.98,-4.47 -9.98,-9.99 0,-0.7 0.07,-1.38 0.21,-2.04 -1.09,0.41 -2.27,0.63 -3.51,0.63 -5.51,0 -9.98,-4.47 -9.98,-9.98 0,-0.61 0.06,-1.2 0.16,-1.78 -0.91,0.28 -1.88,0.43 -2.88,0.43 -5.51,0 -9.98,-4.47 -9.98,-9.99 0,-1.19 0.21,-2.34 0.59,-3.41 -1.2,0.52 -2.53,0.8 -3.92,0.8 -5.51,0 -9.98,-4.47 -9.98,-9.98 0,-5.51 4.47,-9.98 9.98,-9.98z"/>
    </g>
   </g>
   <g>
    <path class="fil1" d="M338.83 10.06l38.37 0c0,60.95 0,121.89 0,182.84 0.62,43.95 -16.56,73.14 -56.43,83.53 -2.26,-3.01 -4.51,-6.02 -6.77,-9.03 15.11,-12.12 26.34,-26.32 24.83,-47.41l0 -209.93z"/>
    <rect class="fil1" x="422.35" y="80.03" width="38.37" height="133.18"/>
    <path class="fil1" d="M417.84 25.86c5.42,-9.91 13.07,-18.08 22.57,-24.83 11.1,4.37 18.83,16.12 24.83,24.83 -7.38,11.83 -14.94,17.84 -22.57,24.83 -11.26,-4.65 -19.82,-14.16 -24.83,-24.83z"/>
    <rect class="fil1" x="654.2" y="80.03" width="38.37" height="133.18"/>
    <path class="fil1" d="M649.69 25.86c5.42,-9.91 13.08,-18.08 22.57,-24.83 11.1,4.37 18.83,16.12 24.83,24.83 -7.38,11.83 -14.94,17.84 -22.57,24.83 -11.26,-4.65 -19.82,-14.16 -24.83,-24.83z"/>
    <path class="fil1" d="M546.5 111.64c7.53,23.32 15.06,46.65 22.58,69.98 4.41,-10.29 8.82,-20.58 13.23,-30.87 11.21,-26.17 12.75,-44.18 9.34,-72.97 11.76,-1.18 28.39,-5.2 31.19,9.61 1.34,7.13 -0.36,17.87 -4.1,31.02 -15.8,31.6 -31.6,63.21 -47.4,94.81 -9.78,0 -19.57,0 -29.35,0 -10.39,-27.51 -20.78,-55.02 -31.17,-82.53 -7.26,-19.22 -7.43,-19.31 -21.17,-34.57 -7.38,-8.19 -11.34,-16.47 2.97,-19.97 14.71,-3.6 42.68,1.24 53.88,35.49z"/>
    <path class="fil1" d="M731.61 77.78c30.85,0 61.7,0 92.55,0 -0.78,13.36 -5.99,26.9 -15.8,40.63 -11.29,19.56 -22.57,39.13 -33.86,58.69 -5.26,7.41 -6.87,13.13 -6.77,18.06 13.54,0 27.09,0 40.63,0 10.06,0.49 18.32,-2.56 24.83,-9.03 3.73,-3.22 5.9,-2.24 6.77,2.26 -3.22,17.36 -16.25,24.59 -33.86,27.09 -29.34,0 -58.69,0 -88.03,0 4.92,-14.8 11.65,-29.85 20.31,-45.15 14.3,-24.08 28.6,-48.16 42.89,-72.24 -18.06,0 -36.12,0 -54.17,0 1.5,-6.77 3.01,-13.54 4.51,-20.31z"/>
   </g>
  </g>
 </g>
</svg>
