<?xml version="1.0" encoding="UTF-8"?>
<!DOCTYPE svg PUBLIC "-//W3C//DTD SVG 1.1//EN" "http://www.w3.org/Graphics/SVG/1.1/DTD/svg11.dtd">
<!-- Creator: CorelDRAW 2018 (64-Bit Evaluation Version) -->
<svg xmlns="http://www.w3.org/2000/svg" xml:space="preserve" width="285px" height="382px" version="1.1" style="shape-rendering:geometricPrecision; text-rendering:geometricPrecision; image-rendering:optimizeQuality; fill-rule:evenodd; clip-rule:evenodd"
viewBox="0 0 179.22 239.69"
 xmlns:xlink="http://www.w3.org/1999/xlink">
 <defs>
  <style type="text/css">
   <![CDATA[
    .str0 {stroke:#E6E7E8;stroke-width:1.31;stroke-miterlimit:2.61313}
    .fil0 {fill:#FEFEFE}
    .fil1 {fill:#E6E7E8}
   ]]>
  </style>
 </defs>
 <g id="Layer_x0020_1">
  <metadata id="CorelCorpID_0Corel-Layer"/>
  <g id="_2631077423776">
   <path class="fil0 str0" d="M56.33 138.6c-25.43,-27.33 -40.38,-48.1 -48.37,-64.5 -12.67,-26 -9.84,-51.42 16.23,-67.22 23.87,-14.45 50.18,-1.45 68.58,15.32 12.7,11.59 25.47,27.29 38.28,46.08 -7.02,11.3 -15.18,20.72 -24.48,29.51 -13.02,-18.11 -26.01,-35.01 -38.86,-44.93 -4.58,-3.53 -19.85,-13.83 -23.33,-4.1 -3.59,10.04 12.85,28.6 20.29,35.43 7.95,7.29 18.06,15.43 29.97,24.28 9,9.62 18.01,18.83 26.25,29.51 5.65,5.02 8.28,11.93 -0.51,11.3 -5.02,-2.51 -6.7,-0.85 -4.4,2.51 1.87,5.48 0.63,9.42 -6.28,5.65 -3.17,-1.99 -3.28,-0.32 -1.88,3.14 1.02,4.91 -1.88,7.53 -6.28,5.02 -4.2,-3.06 -5.02,0 -3.76,1.89 4.39,7.53 -5.66,6.9 -9.42,1.88 -10.68,-10.26 -21.35,-20.51 -32.03,-30.77z"/>
   <g>
    <path class="fil1 str0" d="M84.48 29.35c-11.31,12.77 -22.61,25.54 -33.91,38.3 4.4,8.17 26.55,29.49 27.63,28.26 10.74,-12.39 42.01,-59.4 54.06,-50.41 3.4,2.54 5.05,8.1 1.83,15 -6.29,13.43 -11.48,19.44 -19.51,28.08 -4.7,5.06 -9.38,11.09 -14.07,15.79 -6.77,6.79 -13.48,2.14 -22.22,12.27 -5.46,6.34 -2.76,12.38 1.78,13.87 9.86,3.24 8.26,-10.57 18.91,-10.7 11.84,-0.14 11.87,10.63 23.04,18.72 25.27,-27.32 82.06,-85.11 43.55,-123.29 -24.76,-24.55 -61.26,-9.51 -81.09,14.11z"/>
    <path class="fil1 str0" d="M61.68 135.76c3.47,0 6.28,2.81 6.28,6.28 0,0.75 -0.13,1.48 -0.37,2.15 0.75,-0.33 1.59,-0.51 2.46,-0.51 3.47,0 6.28,2.81 6.28,6.28 0,0.38 -0.03,0.76 -0.1,1.12 0.58,-0.17 1.19,-0.27 1.82,-0.27 3.46,0 6.27,2.81 6.27,6.28 0,0.44 -0.04,0.87 -0.13,1.29 0.69,-0.26 1.43,-0.4 2.2,-0.4 3.47,0 6.28,2.81 6.28,6.28 0,3.47 -2.81,6.28 -6.28,6.28 -3.46,0 -6.27,-2.81 -6.27,-6.28 0,-0.44 0.04,-0.87 0.13,-1.29 -0.69,0.26 -1.43,0.4 -2.2,0.4 -3.47,0 -6.28,-2.81 -6.28,-6.28 0,-0.38 0.03,-0.75 0.1,-1.12 -0.58,0.18 -1.19,0.27 -1.82,0.27 -3.46,0 -6.28,-2.81 -6.28,-6.28 0,-0.75 0.14,-1.48 0.38,-2.14 -0.76,0.32 -1.59,0.5 -2.47,0.5 -3.46,0 -6.28,-2.81 -6.28,-6.28 0,-3.47 2.82,-6.28 6.28,-6.28z"/>
   </g>
   <g>
    <path class="fil1" d="M23.37 165.6l10.68 0c0,16.96 0,33.91 0,50.86 0.17,12.23 -4.61,20.34 -15.7,23.23 -0.63,-0.83 -1.25,-1.67 -1.88,-2.51 4.2,-3.37 7.32,-7.32 6.9,-13.18l0 -58.4z"/>
    <rect class="fil1" x="46.61" y="185.07" width="10.67" height="37.05"/>
    <path class="fil1" d="M45.35 170c1.51,-2.76 3.64,-5.03 6.28,-6.91 3.09,1.22 5.24,4.49 6.91,6.91 -2.06,3.29 -4.16,4.96 -6.28,6.91 -3.13,-1.3 -5.52,-3.94 -6.91,-6.91z"/>
    <rect class="fil1" x="111.1" y="185.07" width="10.67" height="37.05"/>
    <path class="fil1" d="M109.84 170c1.51,-2.76 3.64,-5.03 6.28,-6.91 3.09,1.22 5.24,4.49 6.91,6.91 -2.06,3.29 -4.16,4.96 -6.28,6.91 -3.13,-1.3 -5.52,-3.94 -6.91,-6.91z"/>
    <path class="fil1" d="M81.14 193.86c2.09,6.49 4.19,12.97 6.28,19.46 1.23,-2.86 2.45,-5.72 3.68,-8.58 3.12,-7.28 3.54,-12.29 2.6,-20.3 3.27,-0.33 7.89,-1.45 8.67,2.67 0.38,1.99 -0.1,4.97 -1.14,8.63 -4.39,8.79 -8.79,17.58 -13.18,26.37 -2.72,0 -5.44,0 -8.17,0 -2.89,-7.65 -5.78,-15.3 -8.67,-22.95 -2.01,-5.35 -2.06,-5.37 -5.89,-9.62 -2.05,-2.28 -3.15,-4.58 0.83,-5.55 4.09,-1 11.87,0.34 14.99,9.87z"/>
    <path class="fil1" d="M132.63 184.44c8.58,0 17.16,0 25.74,0 -0.22,3.72 -1.67,7.48 -4.39,11.3 -3.14,5.44 -6.28,10.89 -9.42,16.33 -1.47,2.06 -1.91,3.65 -1.89,5.02 3.77,0 7.54,0 11.31,0 2.79,0.14 5.09,-0.71 6.9,-2.51 1.04,-0.9 1.64,-0.63 1.89,0.63 -0.9,4.83 -4.53,6.84 -9.42,7.53 -8.17,0 -16.33,0 -24.49,0 1.37,-4.12 3.24,-8.3 5.65,-12.56 3.98,-6.69 7.95,-13.39 11.93,-20.09 -5.02,0 -10.05,0 -15.07,0 0.42,-1.88 0.84,-3.77 1.26,-5.65z"/>
   </g>
  </g>
 </g>
</svg>
