<?xml version="1.0" encoding="UTF-8"?>
<!DOCTYPE svg PUBLIC "-//W3C//DTD SVG 1.1//EN" "http://www.w3.org/Graphics/SVG/1.1/DTD/svg11.dtd">
<!-- Creator: CorelDRAW 2018 (64-Bit Evaluation Version) -->
<svg xmlns="http://www.w3.org/2000/svg" xml:space="preserve" width="285px" height="277px" version="1.1" style="shape-rendering:geometricPrecision; text-rendering:geometricPrecision; image-rendering:optimizeQuality; fill-rule:evenodd; clip-rule:evenodd"
viewBox="0 0 80.37 77.94"
 xmlns:xlink="http://www.w3.org/1999/xlink">
 <defs>
  <style type="text/css">
   <![CDATA[
    .str0 {stroke:#E6E7E8;stroke-width:0.59;stroke-miterlimit:2.61313}
    .fil0 {fill:#FEFEFE}
    .fil1 {fill:#E6E7E8}
   ]]>
  </style>
 </defs>
 <g id="Layer_x0020_1">
  <metadata id="CorelCorpID_0Corel-Layer"/>
  <g id="_2631077419296">
   <path class="fil0 str0" d="M25.26 62.16c-11.4,-12.26 -18.11,-21.57 -21.69,-28.93 -5.68,-11.66 -4.41,-23.06 7.28,-30.14 10.7,-6.48 22.5,-0.66 30.75,6.87 5.7,5.19 11.43,12.24 17.17,20.66 -3.15,5.07 -6.81,9.29 -10.98,13.24 -5.84,-8.12 -11.66,-15.7 -17.42,-20.15 -2.06,-1.59 -8.91,-6.21 -10.47,-1.84 -1.61,4.5 5.77,12.82 9.1,15.89 3.57,3.27 8.1,6.92 13.44,10.88 4.04,4.32 8.08,8.45 11.78,13.24 2.53,2.25 3.71,5.35 -0.23,5.07 -2.26,-1.13 -3.01,-0.38 -1.98,1.12 0.84,2.46 0.29,4.23 -2.81,2.54 -1.43,-0.9 -1.47,-0.15 -0.85,1.4 0.46,2.21 -0.84,3.38 -2.81,2.26 -1.89,-1.38 -2.25,0 -1.69,0.84 1.97,3.38 -2.54,3.1 -4.23,0.85 -4.78,-4.6 -9.57,-9.2 -14.36,-13.8z"/>
   <g>
    <path class="fil1 str0" d="M37.88 13.16c-5.06,5.73 -10.13,11.45 -15.2,17.18 1.97,3.66 11.91,13.23 12.39,12.67 4.82,-5.55 18.84,-26.63 24.24,-22.6 1.53,1.14 2.27,3.63 0.82,6.72 -2.82,6.03 -5.14,8.72 -8.74,12.59 -2.11,2.27 -4.21,4.98 -6.31,7.09 -3.04,3.04 -6.05,0.95 -9.97,5.5 -2.45,2.84 -1.24,5.55 0.8,6.22 4.42,1.45 3.7,-4.74 8.48,-4.8 5.31,-0.06 5.32,4.77 10.33,8.4 11.34,-12.26 36.8,-38.17 19.53,-55.3 -11.1,-11 -27.47,-4.26 -36.37,6.33z"/>
    <path class="fil1 str0" d="M27.66 60.88c1.56,0 2.82,1.26 2.82,2.82 0,0.34 -0.06,0.66 -0.17,0.96 0.34,-0.14 0.71,-0.22 1.11,-0.22 1.55,0 2.81,1.26 2.81,2.81 0,0.17 -0.01,0.34 -0.04,0.5 0.26,-0.07 0.53,-0.12 0.81,-0.12 1.56,0 2.82,1.26 2.82,2.82 0,0.2 -0.02,0.39 -0.06,0.58 0.3,-0.12 0.64,-0.18 0.98,-0.18 1.56,0 2.82,1.26 2.82,2.81 0,1.56 -1.26,2.82 -2.82,2.82 -1.55,0 -2.81,-1.26 -2.81,-2.82 0,-0.19 0.02,-0.39 0.06,-0.57 -0.31,0.11 -0.64,0.18 -0.99,0.18 -1.55,0 -2.82,-1.27 -2.82,-2.82 0,-0.17 0.02,-0.34 0.05,-0.5 -0.26,0.08 -0.53,0.12 -0.81,0.12 -1.56,0 -2.82,-1.26 -2.82,-2.82 0,-0.34 0.06,-0.66 0.17,-0.96 -0.34,0.14 -0.71,0.23 -1.11,0.23 -1.55,0 -2.81,-1.27 -2.81,-2.82 0,-1.56 1.26,-2.82 2.81,-2.82z"/>
   </g>
  </g>
 </g>
</svg>
